<svg xmlns="http://www.w3.org/2000/svg" viewBox="-8 -8 403 56" role="img" aria-label="VenueDen">
  <defs>
    <path id="gV" d="M0 0H5.7L13 29.2L20.3 0H26L16 40H10Z"/>
    <path id="gE" d="M0 0H24V5H5V17.5H21V22.5H5V35H24V40H0Z"/>
    <path id="gN" d="M0 0H5V40H0ZM21 0H26V40H21ZM0 0H6L26 30.8V40Z"/>
    <path id="gU" d="M0 0V27A13 13 0 0 0 26 27V0H21V27A8 8 0 0 1 5 27V0Z"/>
    <path id="gD" fill-rule="evenodd" d="M0 0H10A17 20 0 0 1 10 40H0ZM5 5H10A12 15 0 0 1 10 35H5Z"/>
  </defs>
  <!-- Coiled-den mark -->
  <g transform="scale(0.909) translate(-8 -10)" stroke="#C8501F" fill="none" stroke-linecap="round">
    <path d="M56 34A24 24 0 0 0 8 34A20 20 0 0 0 48 34A16 16 0 0 0 16 34A12 12 0 0 0 40 34A8 8 0 0 0 24 34A4 4 0 0 0 32 34" stroke-width="5"/>
    <path d="M48 34A8 8 0 0 0 56 42" stroke-width="2"/>
  </g>
  <!-- Wordmark -->
  <g fill="#191512" transform="translate(65.6 0)">
    <use href="#gV" x="0"/>
    <use href="#gE" x="40"/>
    <use href="#gN" x="78"/>
    <use href="#gU" x="118"/>
    <use href="#gE" x="158"/>
    <use href="#gD" x="216"/>
    <use href="#gE" x="257"/>
    <use href="#gN" x="295"/>
  </g>
</svg>
